<svg xmlns="http://www.w3.org/2000/svg" width="1600" height="900" viewBox="0 0 1600 900" role="img" aria-label="Mapa de distribuicoes Linux">
  <defs>
    <linearGradient id="bg" x1="0" y1="0" x2="1" y2="1">
      <stop offset="0%" stop-color="#0f172a"/>
      <stop offset="100%" stop-color="#1e293b"/>
    </linearGradient>
    <linearGradient id="pill" x1="0" y1="0" x2="1" y2="0">
      <stop offset="0%" stop-color="#22d3ee"/>
      <stop offset="100%" stop-color="#06b6d4"/>
    </linearGradient>
  </defs>
  <rect width="1600" height="900" fill="url(#bg)"/>
  <text x="80" y="120" fill="#e2e8f0" font-family="Segoe UI, Arial, sans-serif" font-size="64" font-weight="700">Linux Distros</text>
  <text x="80" y="170" fill="#94a3b8" font-family="Segoe UI, Arial, sans-serif" font-size="28">Historico, usos e ranking por perfil</text>

  <rect x="80" y="230" rx="18" ry="18" width="450" height="78" fill="#111827" stroke="#334155"/>
  <text x="110" y="280" fill="#67e8f9" font-family="Segoe UI, Arial, sans-serif" font-size="34" font-weight="700">Debian Family</text>

  <rect x="80" y="330" rx="16" ry="16" width="220" height="58" fill="url(#pill)"/>
  <text x="132" y="367" fill="#0f172a" font-family="Segoe UI, Arial, sans-serif" font-size="28" font-weight="700">Ubuntu</text>
  <rect x="320" y="330" rx="16" ry="16" width="220" height="58" fill="url(#pill)"/>
  <text x="381" y="367" fill="#0f172a" font-family="Segoe UI, Arial, sans-serif" font-size="28" font-weight="700">Mint</text>
  <rect x="560" y="330" rx="16" ry="16" width="220" height="58" fill="url(#pill)"/>
  <text x="628" y="367" fill="#0f172a" font-family="Segoe UI, Arial, sans-serif" font-size="28" font-weight="700">Pop!_OS</text>

  <rect x="860" y="230" rx="18" ry="18" width="450" height="78" fill="#111827" stroke="#334155"/>
  <text x="890" y="280" fill="#a5f3fc" font-family="Segoe UI, Arial, sans-serif" font-size="34" font-weight="700">Red Hat Family</text>

  <rect x="860" y="330" rx="16" ry="16" width="220" height="58" fill="#38bdf8"/>
  <text x="932" y="367" fill="#0f172a" font-family="Segoe UI, Arial, sans-serif" font-size="28" font-weight="700">Fedora</text>
  <rect x="1100" y="330" rx="16" ry="16" width="220" height="58" fill="#38bdf8"/>
  <text x="1163" y="367" fill="#0f172a" font-family="Segoe UI, Arial, sans-serif" font-size="28" font-weight="700">RHEL</text>

  <rect x="80" y="470" rx="18" ry="18" width="450" height="78" fill="#111827" stroke="#334155"/>
  <text x="110" y="520" fill="#67e8f9" font-family="Segoe UI, Arial, sans-serif" font-size="34" font-weight="700">Arch Family</text>
  <rect x="80" y="570" rx="16" ry="16" width="220" height="58" fill="#22d3ee"/>
  <text x="154" y="607" fill="#0f172a" font-family="Segoe UI, Arial, sans-serif" font-size="28" font-weight="700">Arch</text>
  <rect x="320" y="570" rx="16" ry="16" width="220" height="58" fill="#22d3ee"/>
  <text x="384" y="607" fill="#0f172a" font-family="Segoe UI, Arial, sans-serif" font-size="28" font-weight="700">Manjaro</text>

  <rect x="860" y="470" rx="18" ry="18" width="450" height="78" fill="#111827" stroke="#334155"/>
  <text x="890" y="520" fill="#a5f3fc" font-family="Segoe UI, Arial, sans-serif" font-size="34" font-weight="700">Enterprise / Niche</text>
  <rect x="860" y="570" rx="16" ry="16" width="220" height="58" fill="#38bdf8"/>
  <text x="930" y="607" fill="#0f172a" font-family="Segoe UI, Arial, sans-serif" font-size="28" font-weight="700">openSUSE</text>
  <rect x="1100" y="570" rx="16" ry="16" width="220" height="58" fill="#38bdf8"/>
  <text x="1173" y="607" fill="#0f172a" font-family="Segoe UI, Arial, sans-serif" font-size="28" font-weight="700">NixOS</text>

  <text x="80" y="820" fill="#94a3b8" font-family="Segoe UI, Arial, sans-serif" font-size="24">ADML PKM - Linux Distros Guide</text>
</svg>
